# xmcd CD database file
#
# Track frame offsets:
#	150
#	28685
#	41540
#	76412
#	98912
#	126257
#	151202
#	175877
#	215557
#	239605
#	272127
#
# Disc length: 3882 seconds
#
# Revision: 1
# Processed by: cddbd v1.5.2PL0 Copyright (c) Steve Scherf et al.
# Submitted via: CDex 1.51
#
DISCID=950f280b
DTITLE=Jessica Born and The Foolhouse Blues Band - Blues Before sunrise
DYEAR=1998
DGENRE=Blues
TTITLE0=Go For Me
TTITLE1=Sam
TTITLE2=Blues Before Sunrise
TTITLE3=Leavin'  This Morning
TTITLE4=Black Leather
TTITLE5=Nobody' s Blues
TTITLE6=Tears Comin' In My Eyes
TTITLE7=Why Did You Go
TTITLE8=Gonna Leave The City
TTITLE9=Travelin' Man Blues
TTITLE10=Give Me Time
EXTD=YEAR: 1998
EXTT0=
EXTT1=
EXTT2=
EXTT3=
EXTT4=
EXTT5=
EXTT6=
EXTT7=
EXTT8=
EXTT9=
EXTT10=
PLAYORDER=
